<svg width="18" height="18" viewBox="0 0 18 18" fill="none" xmlns="http://www.w3.org/2000/svg">
<path d="M2.05768 17.5C1.55254 17.5 1.12498 17.325 0.775 16.975C0.425 16.625 0.25 16.1974 0.25 15.6923V2.30773C0.25 1.80259 0.425 1.37502 0.775 1.02502C1.12498 0.675024 1.55254 0.500024 2.05768 0.500024H11.2115V2H2.05768C1.96792 2 1.8942 2.02885 1.8365 2.08655C1.7788 2.14425 1.74995 2.21798 1.74995 2.30773V15.6923C1.74995 15.782 1.7788 15.8557 1.8365 15.9134C1.8942 15.9711 1.96792 16 2.05768 16H15.4423C15.532 16 15.6057 15.9711 15.6634 15.9134C15.7211 15.8557 15.75 15.782 15.75 15.6923V6.53842H17.2499V15.6923C17.2499 16.1974 17.0749 16.625 16.7249 16.975C16.3749 17.325 15.9474 17.5 15.4423 17.5H2.05768ZM4.11538 13.75H5.61533V7.25002H4.11538V13.75ZM7.99998 13.75H9.49995V4.25002H7.99998V13.75ZM11.8846 13.75H13.3846V10.25H11.8846V13.75ZM14.25 5.49998V3.49998H12.25V2H14.25V0H15.75V2H17.75V3.49998H15.75V5.49998H14.25Z" fill="#213779"/>
</svg>
