<svg width="30" height="26" viewBox="0 0 30 26" fill="none" xmlns="http://www.w3.org/2000/svg">
<path d="M14.9423 25.8462C13.7231 25.0115 12.4231 24.3702 11.0423 23.9221C9.66155 23.474 8.23077 23.25 6.75 23.25C5.96922 23.25 5.2024 23.3154 4.44953 23.4462C3.69663 23.5769 2.96345 23.7866 2.25 24.075C1.70578 24.2923 1.19471 24.2318 0.716812 23.8933C0.238937 23.5548 0 23.0885 0 22.4943V8.05384C0 7.68269 0.1024 7.34808 0.3072 7.05C0.512 6.75193 0.78075 6.54039 1.11345 6.41539C1.99423 6.02691 2.91058 5.73556 3.8625 5.54134C4.81442 5.34711 5.77693 5.25 6.75 5.25C8.21922 5.25 9.64279 5.47596 11.0207 5.92789C12.3986 6.37981 13.725 6.98077 15 7.73077V24.0346C16.2558 23.2346 17.5885 22.6539 18.9981 22.2923C20.4077 21.9308 21.825 21.75 23.25 21.75C24.0731 21.75 24.8197 21.7962 25.4899 21.8885C26.1601 21.9808 26.875 22.1385 27.6346 22.3615C27.8462 22.4192 28.0433 22.424 28.226 22.3759C28.4087 22.3279 28.5 22.1692 28.5 21.9V6.20768C28.6442 6.23653 28.7822 6.27644 28.914 6.32741C29.0457 6.37836 29.1712 6.44615 29.2904 6.53078C29.5269 6.65578 29.7043 6.83365 29.8226 7.0644C29.9409 7.29517 30 7.54806 30 7.82306V22.4366C30 23.0308 29.7466 23.4923 29.2399 23.8212C28.7332 24.15 28.1789 24.2154 27.5769 24.0173C26.8827 23.7481 26.1736 23.5529 25.4495 23.4317C24.7255 23.3106 23.9923 23.25 23.25 23.25C21.75 23.25 20.2904 23.4596 18.8712 23.8789C17.4519 24.2981 16.1423 24.9539 14.9423 25.8462ZM18 20.25V7.5L25.5 0V13.5L18 20.25ZM13.5 23.3221V8.61634C12.4442 8.03556 11.3524 7.57931 10.2245 7.24759C9.09663 6.91586 7.93845 6.75 6.75 6.75C5.825 6.75 4.96828 6.83269 4.17983 6.99806C3.39135 7.16346 2.68076 7.37309 2.04806 7.62694C1.89421 7.68461 1.76441 7.76634 1.65866 7.87211C1.55289 7.97789 1.5 8.1077 1.5 8.26155V21.9663C1.5 22.2356 1.59135 22.3943 1.77405 22.4423C1.95673 22.4904 2.15384 22.476 2.36539 22.399C2.97116 22.1894 3.62838 22.0289 4.33703 21.9173C5.04568 21.8058 5.85 21.75 6.75 21.75C8.0923 21.75 9.35335 21.9067 10.5331 22.2202C11.713 22.5336 12.7019 22.901 13.5 23.3221Z" fill="#213779"/>
</svg>
