<svg width="14" height="18" viewBox="0 0 14 18" fill="none" xmlns="http://www.w3.org/2000/svg">
<path d="M1.61537 18C1.15512 18 0.770833 17.8458 0.4625 17.5375C0.154167 17.2292 0 16.8449 0 16.3846V1.61537C0 1.15512 0.154167 0.770833 0.4625 0.4625C0.770833 0.154167 1.15512 0 1.61537 0H12.3846C12.8449 0 13.2292 0.154167 13.5375 0.4625C13.8458 0.770833 14 1.15512 14 1.61537V16.3846C14 16.8449 13.8458 17.2292 13.5375 17.5375C13.2292 17.8458 12.8449 18 12.3846 18H1.61537ZM1.61537 17H12.3846C12.5385 17 12.6795 16.9359 12.8077 16.8077C12.9359 16.6795 13 16.5385 13 16.3846V1.61537C13 1.46154 12.9359 1.32052 12.8077 1.1923C12.6795 1.0641 12.5385 1 12.3846 1H11V7.1154L9 5.92307L7 7.1154V1H1.61537C1.46154 1 1.32052 1.0641 1.1923 1.1923C1.0641 1.32052 1 1.46154 1 1.61537V16.3846C1 16.5385 1.0641 16.6795 1.1923 16.8077C1.32052 16.9359 1.46154 17 1.61537 17Z" fill="#213779"/>
</svg>
