<svg width="20" height="22" viewBox="0 0 20 22" fill="none" xmlns="http://www.w3.org/2000/svg">
<path d="M9.65376 21.5C9.32491 21.5 9.05039 21.3899 8.83019 21.1697C8.61001 20.9495 8.49993 20.675 8.49993 20.3462V11.9808L0.405702 1.74616C0.203777 1.47691 0.176364 1.20191 0.323464 0.921163C0.470589 0.640388 0.705689 0.5 1.02876 0.5H18.9711C19.2942 0.5 19.5293 0.640388 19.6764 0.921163C19.8235 1.20191 19.7961 1.47691 19.5942 1.74616L11.4999 11.9808V20.3462C11.4999 20.675 11.3898 20.9495 11.1697 21.1697C10.9495 21.3899 10.6749 21.5 10.3461 21.5H9.65376ZM9.99993 11.45L17.4249 2H2.57493L9.99993 11.45Z" fill="white"/>
</svg>
