<svg width="20" height="26" viewBox="0 0 20 26" fill="none" xmlns="http://www.w3.org/2000/svg">
<path d="M10 25.3269C9.44615 25.3269 8.96922 25.1659 8.56923 24.8438C8.16923 24.5217 7.93461 24.1077 7.86539 23.6019H7C6.59807 23.6019 6.24759 23.4524 5.94854 23.1534C5.64951 22.8544 5.5 22.5039 5.5 22.1019V17.5846C3.94807 16.725 2.74759 15.5529 1.89854 14.0683C1.04951 12.5837 0.625 11.0192 0.625 9.375C0.625 6.75385 1.53221 4.53606 3.34664 2.72164C5.16106 0.907214 7.37885 0 10 0C12.6212 0 14.8389 0.907214 16.6534 2.72164C18.4678 4.53606 19.375 6.75385 19.375 9.375C19.375 11.0308 18.9505 12.5981 18.1015 14.0769C17.2524 15.5558 16.0519 16.725 14.5 17.5846V22.1019C14.5 22.5039 14.3505 22.8544 14.0515 23.1534C13.7524 23.4524 13.4019 23.6019 13 23.6019H12.1346C12.0654 24.1077 11.8308 24.5217 11.4308 24.8438C11.0308 25.1659 10.5539 25.3269 10 25.3269ZM7 22.1019H13V20.6366H7V22.1019ZM7 19.4827H13V18H7V19.4827ZM6.7 16.5H9.33655V11.8154L6.20961 8.68845L7.15 7.74806L10 10.5981L12.85 7.74806L13.7904 8.68845L10.6635 11.8154V16.5H13.3C14.65 15.85 15.75 14.8938 16.6 13.6313C17.45 12.3688 17.875 10.95 17.875 9.375C17.875 7.175 17.1125 5.3125 15.5875 3.7875C14.0625 2.2625 12.2 1.5 10 1.5C7.8 1.5 5.9375 2.2625 4.4125 3.7875C2.8875 5.3125 2.125 7.175 2.125 9.375C2.125 10.95 2.55 12.3688 3.4 13.6313C4.25 14.8938 5.35 15.85 6.7 16.5Z" fill="#213779"/>
</svg>
