<svg width="18" height="18" viewBox="0 0 18 18" fill="none" xmlns="http://www.w3.org/2000/svg">
<path d="M12.3423 12.991L12.991 12.3423L9.45833 8.8092V4.41667H8.54167V9.19039L12.3423 12.991ZM9.00307 17.25C7.86223 17.25 6.78966 17.0335 5.78534 16.6006C4.78103 16.1676 3.9074 15.58 3.16448 14.8378C2.42156 14.0955 1.83342 13.2227 1.40005 12.2194C0.966685 11.216 0.75 10.1439 0.75 9.00307C0.75 7.86223 0.966479 6.78966 1.39944 5.78534C1.83241 4.78103 2.42001 3.90741 3.16223 3.16448C3.90446 2.42156 4.77725 1.83342 5.78062 1.40005C6.784 0.966685 7.85611 0.75 8.99693 0.75C10.1378 0.75 11.2103 0.966478 12.2147 1.39944C13.219 1.83241 14.0926 2.42001 14.8355 3.16223C15.5784 3.90446 16.1666 4.77725 16.5999 5.78062C17.0333 6.784 17.25 7.85611 17.25 8.99693C17.25 10.1378 17.0335 11.2103 16.6006 12.2147C16.1676 13.219 15.58 14.0926 14.8378 14.8355C14.0955 15.5784 13.2227 16.1666 12.2194 16.5999C11.216 17.0333 10.1439 17.25 9.00307 17.25ZM9 16.3333C11.0319 16.3333 12.7622 15.6191 14.1906 14.1906C15.6191 12.7622 16.3333 11.0319 16.3333 9C16.3333 6.96806 15.6191 5.23785 14.1906 3.80938C12.7622 2.3809 11.0319 1.66667 9 1.66667C6.96806 1.66667 5.23785 2.3809 3.80938 3.80938C2.3809 5.23785 1.66667 6.96806 1.66667 9C1.66667 11.0319 2.3809 12.7622 3.80938 14.1906C5.23785 15.6191 6.96806 16.3333 9 16.3333Z" fill="#7EDC92"/>
</svg>
