<svg width="20" height="20" viewBox="0 0 20 20" fill="none" xmlns="http://www.w3.org/2000/svg">
<path d="M10.2907 4.18688C10.1893 4.18688 10.0955 4.18688 10.0022 4.18688C6.95666 4.18688 3.91107 4.18688 0.865477 4.18571C0.757101 4.18571 0.646395 4.18221 0.540933 4.16007C0.193082 4.08666 -0.0230873 3.78484 0.00196734 3.42242C0.0252739 3.08331 0.293883 2.81819 0.641734 2.79489C0.728551 2.78906 0.815951 2.79081 0.90335 2.79081C3.94137 2.79081 6.97996 2.79081 10.018 2.79081C10.1048 2.79081 10.191 2.79081 10.2237 2.79081C10.4328 2.35498 10.5791 1.92031 10.8279 1.55614C11.6325 0.376826 12.7821 -0.15573 14.1904 0.0394628C15.6553 0.242813 16.6196 1.11098 17.063 2.52628C17.1306 2.74187 17.2139 2.80305 17.4324 2.79722C18.0355 2.78032 18.6391 2.78906 19.2422 2.79256C19.6949 2.79489 19.9955 3.0769 19.9944 3.48884C19.9932 3.89613 19.6873 4.1828 19.2375 4.18629C18.6053 4.19095 17.9725 4.19154 17.3403 4.18455C17.1947 4.1828 17.1341 4.21951 17.0892 4.37275C16.7046 5.68491 15.8563 6.55308 14.5226 6.8718C13.2151 7.18469 12.0812 6.80596 11.1501 5.84048C10.7603 5.43611 10.5045 4.949 10.353 4.40771C10.3326 4.33895 10.314 4.2702 10.2907 4.18688ZM15.8062 3.49933C15.8184 2.35148 14.903 1.41339 13.754 1.39707C12.587 1.38018 11.6331 2.30836 11.6226 3.47136C11.6127 4.61688 12.5596 5.5777 13.7028 5.58178C14.8576 5.58527 15.7939 4.65825 15.8062 3.49933Z" fill="#213779"/>
<path d="M10.2842 17.206C10.1793 17.206 10.0925 17.206 10.0057 17.206C6.96007 17.206 3.91447 17.206 0.86946 17.2048C0.746517 17.2048 0.618913 17.2083 0.501215 17.1792C0.197646 17.1034 -0.00570464 16.815 0.000122023 16.4951C0.00594868 16.1741 0.217456 15.9061 0.532679 15.8385C0.645133 15.8146 0.763415 15.8111 0.878782 15.8111C3.93894 15.8099 6.99911 15.8082 10.0587 15.8146C10.2451 15.8152 10.3116 15.761 10.3605 15.5792C10.7643 14.0806 12.158 13.0236 13.7155 13.0195C15.2631 13.0155 16.6481 14.0549 17.0629 15.5541C17.1223 15.768 17.2109 15.8192 17.4172 15.8152C18.0348 15.8023 18.653 15.8076 19.2706 15.8123C19.5818 15.8146 19.8195 15.9538 19.9407 16.2463C20.0497 16.5097 20.0071 16.7602 19.8166 16.977C19.6674 17.1465 19.4746 17.2083 19.2514 17.2071C18.6116 17.2037 17.9719 17.2089 17.3327 17.2037C17.1987 17.2025 17.1346 17.2305 17.0944 17.3796C16.6702 18.9551 15.3015 20.0051 13.7015 19.9969C12.1073 19.9882 10.7614 18.9359 10.3384 17.3674C10.325 17.3184 10.3063 17.2712 10.2842 17.206ZM15.8073 16.519C15.8166 15.3683 14.8773 14.4179 13.7266 14.415C12.577 14.4121 11.6301 15.3519 11.6231 16.5021C11.6162 17.6441 12.5461 18.5886 13.6875 18.5997C14.8616 18.6114 15.7974 17.6931 15.8073 16.519Z" fill="#213779"/>
<path d="M1.91585 10.6967C1.53129 10.6967 1.14673 10.6978 0.762167 10.6961C0.312932 10.6943 0.00353606 10.4135 4.00681e-05 10.0074C-0.00403859 9.58785 0.303609 9.30351 0.766829 9.30176C1.1444 9.30002 1.52196 9.30118 1.85234 9.30118C2.06151 8.8671 2.20776 8.42427 2.46297 8.05777C3.29793 6.8569 4.47492 6.32901 5.91701 6.5679C7.32998 6.80213 8.25758 7.66156 8.68817 9.03141C8.75285 9.23825 8.82335 9.30817 9.05001 9.30759C12.4365 9.29827 15.8235 9.3006 19.21 9.30118C19.6877 9.30118 20.0006 9.5861 19.9948 10.0114C19.9896 10.368 19.7163 10.6623 19.3585 10.6932C19.2793 10.7002 19.1989 10.6967 19.1191 10.6967C15.7542 10.6967 12.3893 10.6984 9.02437 10.692C8.83501 10.6914 8.75401 10.7334 8.70041 10.9286C8.27856 12.4633 6.89356 13.5004 5.30755 13.487C3.74483 13.4742 2.37207 12.4004 1.97062 10.8761C1.9543 10.8214 1.93682 10.766 1.91585 10.6967ZM7.43311 10.0056C7.44185 8.86069 6.516 7.91619 5.37397 7.9057C4.20805 7.89463 3.2554 8.82981 3.24957 9.99106C3.24374 11.1296 4.18067 12.0834 5.31454 12.0921C6.48453 12.1009 7.42379 11.1762 7.43311 10.0056Z" fill="#213779"/>
</svg>
